<svg width="35" height="34" viewBox="0 0 35 34" fill="none" xmlns="http://www.w3.org/2000/svg">
<path d="M30.506 0H3.66071C2.68983 0 1.75872 0.378626 1.0722 1.05259C0.385681 1.72654 0 2.64063 0 3.59375L0 29.9479C0 30.901 0.385681 31.8151 1.0722 32.4891C1.75872 33.163 2.68983 33.5417 3.66071 33.5417H14.1281V22.1383H9.32338V16.7708H14.1281V12.6799C14.1281 8.02679 16.9499 5.45651 21.2718 5.45651C23.3416 5.45651 25.506 5.81888 25.506 5.81888V10.3859H23.1212C20.7715 10.3859 20.0386 11.8174 20.0386 13.2856V16.7708H25.2841L24.4452 22.1383H20.0386V33.5417H30.506C31.4768 33.5417 32.408 33.163 33.0945 32.4891C33.781 31.8151 34.1667 30.901 34.1667 29.9479V3.59375C34.1667 2.64063 33.781 1.72654 33.0945 1.05259C32.408 0.378626 31.4768 0 30.506 0Z" fill="white"/>
</svg>
