<svg width="35" height="34" viewBox="0 0 35 34" fill="none" xmlns="http://www.w3.org/2000/svg">
<path d="M17.0833 12.7773C16.2788 12.7776 15.4925 13.012 14.8237 13.451C14.1549 13.89 13.6338 14.5139 13.3261 15.2436C13.0184 15.9734 12.9381 16.7763 13.0952 17.5509C13.2524 18.3254 13.6399 19.0369 14.2089 19.5952C14.7779 20.1536 15.5027 20.5338 16.2918 20.6878C17.0809 20.8417 17.8987 20.7626 18.642 20.4603C19.3852 20.1579 20.0204 19.6461 20.4674 18.9894C20.9143 18.3327 21.1528 17.5606 21.1528 16.7708C21.152 15.7117 20.723 14.6961 19.9599 13.9473C19.1969 13.1985 18.1622 12.7777 17.0833 12.7773ZM26.5943 9.70762C26.3872 9.1924 26.0745 8.72444 25.6756 8.33279C25.2766 7.94113 24.7999 7.63413 24.2751 7.43083C22.6735 6.81016 18.8603 6.94941 17.0833 6.94941C15.3064 6.94941 11.4969 6.80492 9.89079 7.43083C9.36597 7.63413 8.8893 7.94113 8.49034 8.33279C8.09139 8.72444 7.77867 9.1924 7.57158 9.70762C6.9401 11.2799 7.08119 15.0271 7.08119 16.7701C7.08119 18.5131 6.9401 22.2558 7.57463 23.8333C7.78172 24.3485 8.09444 24.8165 8.49339 25.2081C8.89235 25.5998 9.36902 25.9068 9.89384 26.1101C11.4954 26.7308 15.3086 26.5915 17.0864 26.5915C18.8641 26.5915 22.672 26.736 24.2782 26.1101C24.803 25.9068 25.2797 25.5998 25.6786 25.2081C26.0776 24.8165 26.3903 24.3485 26.5974 23.8333C27.2342 22.261 27.0878 18.5138 27.0878 16.7708C27.0878 15.0279 27.2342 11.2859 26.5974 9.70837L26.5943 9.70762ZM17.0833 22.9102C15.8465 22.9102 14.6374 22.5501 13.609 21.8755C12.5805 21.2009 11.779 20.2421 11.3056 19.1203C10.8323 17.9984 10.7085 16.764 10.9498 15.5731C11.1911 14.3822 11.7867 13.2883 12.6613 12.4297C13.5359 11.5711 14.6502 10.9864 15.8633 10.7495C17.0764 10.5126 18.3338 10.6342 19.4765 11.0988C20.6192 11.5635 21.5959 12.3504 22.2831 13.36C22.9703 14.3696 23.3371 15.5566 23.3371 16.7708C23.3381 17.5773 23.177 18.3761 22.8631 19.1214C22.5491 19.8667 22.0885 20.5439 21.5076 21.1142C20.9267 21.6845 20.2369 22.1367 19.4777 22.4448C18.7185 22.753 17.9049 22.9111 17.0833 22.9102ZM23.5948 11.807C23.3061 11.8071 23.0238 11.7232 22.7836 11.5658C22.5435 11.4085 22.3563 11.1847 22.2457 10.9229C22.1351 10.661 22.1061 10.3729 22.1623 10.0949C22.2185 9.81683 22.3575 9.56142 22.5616 9.36093C22.7657 9.16045 23.0258 9.02389 23.309 8.96854C23.5922 8.91319 23.8857 8.94152 24.1525 9.04996C24.4193 9.1584 24.6473 9.34207 24.8077 9.57775C24.9681 9.81342 25.0538 10.0905 25.0538 10.374C25.0546 10.5622 25.0175 10.7487 24.9447 10.9229C24.8719 11.097 24.7648 11.2553 24.6296 11.3887C24.4943 11.5222 24.3335 11.628 24.1565 11.7003C23.9795 11.7726 23.7896 11.8099 23.5979 11.81L23.5948 11.807ZM30.506 0H3.66071C2.68983 0 1.75872 0.378626 1.0722 1.05259C0.385681 1.72654 0 2.64063 0 3.59375L0 29.9479C0 30.901 0.385681 31.8151 1.0722 32.4891C1.75872 33.163 2.68983 33.5417 3.66071 33.5417H30.506C31.4768 33.5417 32.408 33.163 33.0945 32.4891C33.781 31.8151 34.1667 30.901 34.1667 29.9479V3.59375C34.1667 2.64063 33.781 1.72654 33.0945 1.05259C32.408 0.378626 31.4768 0 30.506 0ZM29.2003 21.7122C29.1019 23.6312 28.6558 25.3314 27.2288 26.7285C25.8019 28.1256 24.0715 28.5726 22.1191 28.6639C20.1049 28.7755 14.0663 28.7755 12.0521 28.6639C10.0975 28.5673 8.3716 28.1286 6.94239 26.7285C5.51319 25.3285 5.06399 23.6274 4.97094 21.7122C4.85731 19.7342 4.85731 13.8052 4.97094 11.8294C5.06933 9.91051 5.51014 8.21022 6.94239 6.81315C8.37465 5.41608 10.1051 4.97435 12.0521 4.88301C14.0663 4.77145 20.1049 4.77145 22.1191 4.88301C24.0738 4.97959 25.805 5.41833 27.2288 6.81839C28.6527 8.21846 29.1073 9.9195 29.2003 11.8384C29.3139 13.809 29.3139 19.7327 29.2003 21.7122Z" fill="white"/>
</svg>
