<svg width="34" height="35" viewBox="0 0 34 35" fill="none" xmlns="http://www.w3.org/2000/svg">
<path d="M13.8988 13.0122L20.9821 17.1507L13.8988 21.2892V13.0122ZM33.3333 3.67187V30.599C33.3333 32.6261 31.7336 34.2708 29.7619 34.2708H3.57143C1.5997 34.2708 0 32.6261 0 30.599V3.67187C0 1.64469 1.5997 0 3.57143 0H29.7619C31.7336 0 33.3333 1.64469 33.3333 3.67187ZM30.2083 17.1584C30.2083 17.1584 30.2083 12.5991 29.6429 10.4113C29.3304 9.20264 28.4152 8.25407 27.247 7.93278C25.1414 7.34375 16.6667 7.34375 16.6667 7.34375C16.6667 7.34375 8.19196 7.34375 6.08631 7.93278C4.91816 8.25407 4.00298 9.20264 3.69048 10.4113C3.125 12.5915 3.125 17.1584 3.125 17.1584C3.125 17.1584 3.125 21.7176 3.69048 23.9054C4.00298 25.1141 4.91816 26.0244 6.08631 26.3457C8.19196 26.9271 16.6667 26.9271 16.6667 26.9271C16.6667 26.9271 25.1414 26.9271 27.247 26.3381C28.4152 26.0168 29.3304 25.1064 29.6429 23.8978C30.2083 21.7176 30.2083 17.1584 30.2083 17.1584Z" fill="white"/>
</svg>
